{
  "asset": {
    "generator": "glTF-Transform v4.2.1",
    "version": "2.0"
  },
  "accessors": [
    {
      "type": "VEC3",
      "componentType": 5126,
      "count": 11135,
      "max": [
        1.7821874618530273,
        1.3396193981170654,
        2.124103307723999
      ],
      "min": [
        -1.7442271709442139,
        -1.4455286264419556,
        -2.0973668098449707
      ],
      "bufferView": 0,
      "byteOffset": 0
    },
    {
      "type": "VEC2",
      "componentType": 5126,
      "count": 11135,
      "bufferView": 0,
      "byteOffset": 12
    },
    {
      "type": "SCALAR",
      "componentType": 5123,
      "count": 55428,
      "bufferView": 1,
      "byteOffset": 0
    },
    {
      "type": "SCALAR",
      "componentType": 5123,
      "count": 49266,
      "bufferView": 1,
      "byteOffset": 110856
    },
    {
      "type": "VEC3",
      "componentType": 5126,
      "count": 9859,
      "max": [
        1.3389617204666138,
        1.3081222772598267,
        2.0914814472198486
      ],
      "min": [
        -1.7180852890014648,
        -1.4459779262542725,
        -2.1249303817749023
      ],
      "bufferView": 2,
      "byteOffset": 0
    },
    {
      "type": "VEC2",
      "componentType": 5126,
      "count": 9859,
      "bufferView": 2,
      "byteOffset": 12
    }
  ],
  "bufferViews": [
    {
      "buffer": 0,
      "byteOffset": 0,
      "byteLength": 222700,
      "byteStride": 20,
      "target": 34962
    },
    {
      "buffer": 0,
      "byteOffset": 222700,
      "byteLength": 209388,
      "target": 34963
    },
    {
      "buffer": 0,
      "byteOffset": 432088,
      "byteLength": 197180,
      "byteStride": 20,
      "target": 34962
    }
  ],
  "samplers": [
    {
      "magFilter": 9729,
      "minFilter": 9987,
      "wrapS": 10497,
      "wrapT": 10497
    }
  ],
  "textures": [
    {
      "source": 0,
      "sampler": 0
    },
    {
      "source": 1,
      "sampler": 0
    }
  ],
  "images": [
    {
      "mimeType": "image/jpeg",
      "uri": "baseColor_1.jpg"
    },
    {
      "mimeType": "image/jpeg",
      "uri": "baseColor_2.jpg"
    }
  ],
  "buffers": [
    {
      "uri": "buffer.bin",
      "byteLength": 629268
    }
  ],
  "materials": [
    {
      "pbrMetallicRoughness": {
        "metallicFactor": 0,
        "baseColorTexture": {
          "index": 0
        }
      }
    },
    {
      "pbrMetallicRoughness": {
        "metallicFactor": 0,
        "baseColorTexture": {
          "index": 1
        }
      }
    }
  ],
  "meshes": [
    {
      "primitives": [
        {
          "attributes": {
            "POSITION": 0,
            "TEXCOORD_0": 1
          },
          "mode": 4,
          "material": 0,
          "indices": 2
        }
      ]
    },
    {
      "primitives": [
        {
          "attributes": {
            "POSITION": 4,
            "TEXCOORD_0": 5
          },
          "mode": 4,
          "material": 1,
          "indices": 3
        }
      ]
    }
  ],
  "nodes": [
    {
      "children": [
        1
      ]
    },
    {
      "children": [
        2,
        3
      ]
    },
    {
      "name": "mesh_0",
      "mesh": 0
    },
    {
      "name": "mesh_1",
      "mesh": 1
    }
  ],
  "scenes": [
    {
      "name": "AuxScene",
      "nodes": [
        0
      ]
    }
  ],
  "scene": 0
}